<svg width="512" height="512" viewBox="0 0 512 512" fill="none" xmlns="http://www.w3.org/2000/svg">
  <defs>
    <linearGradient id="bg" x1="0" y1="0" x2="512" y2="512" gradientUnits="userSpaceOnUse">
      <stop offset="0" stop-color="#6366F1"/>
      <stop offset="1" stop-color="#A855F7"/>
    </linearGradient>
  </defs>
  <rect width="512" height="512" rx="112" fill="url(#bg)"/>
  <!-- House -->
  <path d="M256 108 L420 250 L392 250 L392 392 A16 16 0 0 1 376 408 L136 408 A16 16 0 0 1 120 392 L120 250 L92 250 Z" fill="#FFFFFF"/>
  <!-- Heart -->
  <path d="M256 372 C256 372 196 332 196 292 C196 268 214 252 236 252 C248 252 256 260 256 260 C256 260 264 252 276 252 C298 252 316 268 316 292 C316 332 256 372 256 372 Z" fill="#FB7185"/>
</svg>
